<svg width="40" height="40" viewBox="0 0 40 40" fill="none" xmlns="http://www.w3.org/2000/svg">
<path d="M24 29V27C24 25.9391 23.5786 24.9217 22.8284 24.1716C22.0783 23.4214 21.0609 23 20 23H13C11.9391 23 10.9217 23.4214 10.1716 24.1716C9.42143 24.9217 9 25.9391 9 27V29" stroke="#5C5C5C" stroke-width="2" stroke-linecap="round" stroke-linejoin="round"/>
<path d="M16.5 19C18.7091 19 20.5 17.2091 20.5 15C20.5 12.7909 18.7091 11 16.5 11C14.2909 11 12.5 12.7909 12.5 15C12.5 17.2091 14.2909 19 16.5 19Z" stroke="#5C5C5C" stroke-width="2" stroke-linecap="round" stroke-linejoin="round"/>
<path d="M28 16V22" stroke="#5C5C5C" stroke-width="2" stroke-linecap="round" stroke-linejoin="round"/>
<path d="M31 19H25" stroke="#5C5C5C" stroke-width="2" stroke-linecap="round" stroke-linejoin="round"/>
</svg>
