<svg width="40" height="40" viewBox="0 0 40 40" fill="none" xmlns="http://www.w3.org/2000/svg">
<g filter="url(#filter0_d_21_1125)">
<path d="M25 10H15C12.2386 10 10 12.2386 10 15V25C10 27.7614 12.2386 30 15 30H25C27.7614 30 30 27.7614 30 25V15C30 12.2386 27.7614 10 25 10Z" stroke="#6C5CE7" stroke-width="2" stroke-linecap="round" stroke-linejoin="round" shape-rendering="crispEdges"/>
</g>
<path d="M24 19.37C24.1234 20.2022 23.9812 21.0522 23.5937 21.799C23.2062 22.5458 22.5931 23.1514 21.8416 23.5297C21.0901 23.9079 20.2384 24.0396 19.4077 23.9059C18.5771 23.7723 17.8097 23.3801 17.2148 22.7852C16.6199 22.1902 16.2277 21.4229 16.094 20.5922C15.9604 19.7615 16.092 18.9099 16.4703 18.1584C16.8485 17.4069 17.4541 16.7937 18.2009 16.4062C18.9477 16.0187 19.7977 15.8766 20.63 16C21.4789 16.1259 22.2648 16.5215 22.8716 17.1283C23.4785 17.7351 23.8741 18.5211 24 19.37Z" stroke="#6C5CE7" stroke-width="2" stroke-linecap="round" stroke-linejoin="round"/>
<g filter="url(#filter1_d_21_1125)">
<circle cx="26" cy="14" r="1" stroke="#6C5CE7" shape-rendering="crispEdges"/>
</g>
<defs>
<filter id="filter0_d_21_1125" x="5" y="9" width="30" height="30" filterUnits="userSpaceOnUse" color-interpolation-filters="sRGB">
<feFlood flood-opacity="0" result="BackgroundImageFix"/>
<feColorMatrix in="SourceAlpha" type="matrix" values="0 0 0 0 0 0 0 0 0 0 0 0 0 0 0 0 0 0 127 0" result="hardAlpha"/>
<feOffset dy="4"/>
<feGaussianBlur stdDeviation="2"/>
<feComposite in2="hardAlpha" operator="out"/>
<feColorMatrix type="matrix" values="0 0 0 0 0 0 0 0 0 0 0 0 0 0 0 0 0 0 0.25 0"/>
<feBlend mode="normal" in2="BackgroundImageFix" result="effect1_dropShadow_21_1125"/>
<feBlend mode="normal" in="SourceGraphic" in2="effect1_dropShadow_21_1125" result="shape"/>
</filter>
<filter id="filter1_d_21_1125" x="20.5" y="12.5" width="11" height="11" filterUnits="userSpaceOnUse" color-interpolation-filters="sRGB">
<feFlood flood-opacity="0" result="BackgroundImageFix"/>
<feColorMatrix in="SourceAlpha" type="matrix" values="0 0 0 0 0 0 0 0 0 0 0 0 0 0 0 0 0 0 127 0" result="hardAlpha"/>
<feOffset dy="4"/>
<feGaussianBlur stdDeviation="2"/>
<feComposite in2="hardAlpha" operator="out"/>
<feColorMatrix type="matrix" values="0 0 0 0 0 0 0 0 0 0 0 0 0 0 0 0 0 0 0.25 0"/>
<feBlend mode="normal" in2="BackgroundImageFix" result="effect1_dropShadow_21_1125"/>
<feBlend mode="normal" in="SourceGraphic" in2="effect1_dropShadow_21_1125" result="shape"/>
</filter>
</defs>
</svg>
