<svg width="40" height="40" viewBox="0 0 40 40" fill="none" xmlns="http://www.w3.org/2000/svg">
<path d="M20.8901 9.20894L28.89 13.2089C29.2233 13.3745 29.5037 13.6298 29.6998 13.946C29.8959 14.2622 29.9999 14.6269 30.0001 14.9989V24.5289C29.9999 24.901 29.8959 25.2657 29.6998 25.5819C29.5037 25.8981 29.2233 26.1534 28.89 26.3189L20.8901 30.3189C20.6122 30.458 20.3058 30.5304 19.995 30.5304C19.6843 30.5304 19.3779 30.458 19.1001 30.3189L11.1 26.3189C10.7672 26.1512 10.4878 25.8938 10.2934 25.5758C10.0991 25.2577 9.99745 24.8917 10 24.5189V14.9989C10.0002 14.6269 10.1042 14.2622 10.3003 13.946C10.4964 13.6298 10.7768 13.3745 11.11 13.2089L19.11 9.20894C19.3866 9.07151 19.6912 9 20 9C20.3089 9 20.6135 9.07151 20.8901 9.20894V9.20894Z" stroke="#5C5C5C" stroke-width="2" stroke-linecap="round" stroke-linejoin="round"/>
<path d="M10.5 14L20 18.5L29.5 14" stroke="#5C5C5C" stroke-width="2" stroke-linecap="round" stroke-linejoin="round"/>
<path d="M20 30.519V18.759" stroke="#5C5C5C" stroke-width="2" stroke-linecap="round" stroke-linejoin="round"/>
</svg>
